<mxfile host="65bd71144e">
    <diagram id="wfMYPycIQKSs0gvgFBlm" name="Page-1">
        <mxGraphModel dx="1146" dy="1063" grid="0" gridSize="10" guides="1" tooltips="1" connect="1" arrows="1" fold="1" page="0" pageScale="1" pageWidth="850" pageHeight="1100" background="#ffffff" math="0" shadow="0">
            <root>
                <mxCell id="0"/>
                <mxCell id="1" parent="0"/>
                <mxCell id="32" value="" style="rounded=0;whiteSpace=wrap;html=1;sketch=1;fontSize=23;fontColor=#000000;strokeColor=#000000;fillColor=#FFFFFF;align=center;" vertex="1" parent="1">
                    <mxGeometry x="-27" y="31" width="337" height="226" as="geometry"/>
                </mxCell>
                <mxCell id="33" value="&lt;b&gt;&lt;font style=&quot;font-size: 17px&quot;&gt;Topic&lt;/font&gt;&lt;/b&gt;" style="text;html=1;strokeColor=none;fillColor=none;align=center;verticalAlign=middle;whiteSpace=wrap;rounded=0;sketch=1;fontColor=#000000;" vertex="1" parent="1">
                    <mxGeometry x="84.38" y="-8" width="103" height="30" as="geometry"/>
                </mxCell>
                <mxCell id="34" value="" style="rounded=0;whiteSpace=wrap;html=1;sketch=1;fillColor=#FFFFFF;strokeColor=#000000;fontColor=#000000;direction=south;" vertex="1" parent="1">
                    <mxGeometry x="-2.5" y="70" width="84.5" height="160" as="geometry"/>
                </mxCell>
                <mxCell id="38" value="" style="rounded=0;whiteSpace=wrap;html=1;sketch=1;fillColor=#FFFFFF;strokeColor=#000000;fontColor=#000000;direction=south;" vertex="1" parent="1">
                    <mxGeometry x="99.25" y="70" width="84.5" height="160" as="geometry"/>
                </mxCell>
                <mxCell id="39" value="" style="rounded=0;whiteSpace=wrap;html=1;sketch=1;fillColor=#FFFFFF;strokeColor=#000000;fontColor=#000000;direction=south;" vertex="1" parent="1">
                    <mxGeometry x="204.5" y="70" width="84.5" height="160" as="geometry"/>
                </mxCell>
                <mxCell id="41" value="" style="rounded=0;whiteSpace=wrap;html=1;sketch=1;fillColor=#66FFFF;strokeColor=#000000;fontColor=#000000;direction=south;" vertex="1" parent="1">
                    <mxGeometry x="13.659999999999997" y="118" width="52.19" height="23.5" as="geometry"/>
                </mxCell>
                <mxCell id="42" value="" style="rounded=0;whiteSpace=wrap;html=1;sketch=1;fillColor=#99FFFF;strokeColor=#000000;fontColor=#000000;direction=south;" vertex="1" parent="1">
                    <mxGeometry x="11.810000000000002" y="87" width="52.19" height="23.5" as="geometry"/>
                </mxCell>
                <mxCell id="43" value="" style="rounded=0;whiteSpace=wrap;html=1;sketch=1;fillColor=#00FFFF;strokeColor=#000000;fontColor=#000000;direction=south;" vertex="1" parent="1">
                    <mxGeometry x="15" y="151" width="52.19" height="23.5" as="geometry"/>
                </mxCell>
                <mxCell id="44" value="" style="rounded=0;whiteSpace=wrap;html=1;sketch=1;fillColor=#00CCCC;strokeColor=#000000;fontColor=#000000;direction=south;" vertex="1" parent="1">
                    <mxGeometry x="15" y="184" width="52.19" height="23.5" as="geometry"/>
                </mxCell>
                <mxCell id="45" value="" style="rounded=0;whiteSpace=wrap;html=1;sketch=1;fillColor=#B266FF;strokeColor=#000000;fontColor=#000000;direction=south;" vertex="1" parent="1">
                    <mxGeometry x="115.39999999999998" y="87" width="52.19" height="23.5" as="geometry"/>
                </mxCell>
                <mxCell id="46" value="" style="rounded=0;whiteSpace=wrap;html=1;sketch=1;fillColor=#9933FF;strokeColor=#000000;fontColor=#000000;direction=south;" vertex="1" parent="1">
                    <mxGeometry x="115.39999999999998" y="118" width="52.19" height="23.5" as="geometry"/>
                </mxCell>
                <mxCell id="47" value="" style="rounded=0;whiteSpace=wrap;html=1;sketch=1;fillColor=#7F00FF;strokeColor=#000000;fontColor=#000000;direction=south;" vertex="1" parent="1">
                    <mxGeometry x="118" y="151" width="52.19" height="23.5" as="geometry"/>
                </mxCell>
                <mxCell id="48" value="" style="rounded=0;whiteSpace=wrap;html=1;sketch=1;fillColor=#4C0099;strokeColor=#000000;fontColor=#000000;direction=south;" vertex="1" parent="1">
                    <mxGeometry x="118" y="182" width="52.19" height="23.5" as="geometry"/>
                </mxCell>
                <mxCell id="49" value="" style="rounded=0;whiteSpace=wrap;html=1;sketch=1;fillColor=#FF3399;strokeColor=#000000;fontColor=#000000;direction=south;" vertex="1" parent="1">
                    <mxGeometry x="220" y="87" width="52.19" height="23.5" as="geometry"/>
                </mxCell>
                <mxCell id="50" value="" style="rounded=0;whiteSpace=wrap;html=1;sketch=1;fillColor=#FF0080;strokeColor=#000000;fontColor=#000000;direction=south;" vertex="1" parent="1">
                    <mxGeometry x="220" y="118" width="52.19" height="23.5" as="geometry"/>
                </mxCell>
                <mxCell id="51" value="" style="rounded=0;whiteSpace=wrap;html=1;sketch=1;fillColor=#CC0066;strokeColor=#000000;fontColor=#000000;direction=south;" vertex="1" parent="1">
                    <mxGeometry x="220" y="151" width="52.19" height="23.5" as="geometry"/>
                </mxCell>
                <mxCell id="52" value="" style="rounded=0;whiteSpace=wrap;html=1;sketch=1;fillColor=#99004D;strokeColor=#000000;fontColor=#000000;direction=south;" vertex="1" parent="1">
                    <mxGeometry x="220.64999999999998" y="186" width="52.19" height="23.5" as="geometry"/>
                </mxCell>
                <mxCell id="54" value="&lt;b&gt;Partition 1&lt;/b&gt;" style="text;html=1;strokeColor=none;fillColor=none;align=center;verticalAlign=middle;whiteSpace=wrap;rounded=0;sketch=1;fontColor=#000000;" vertex="1" parent="1">
                    <mxGeometry x="-11.75" y="38" width="91.75" height="30" as="geometry"/>
                </mxCell>
                <mxCell id="55" value="&lt;b&gt;Partition 2&lt;/b&gt;" style="text;html=1;strokeColor=none;fillColor=none;align=center;verticalAlign=middle;whiteSpace=wrap;rounded=0;sketch=1;fontColor=#000000;" vertex="1" parent="1">
                    <mxGeometry x="90" y="38" width="91.75" height="30" as="geometry"/>
                </mxCell>
                <mxCell id="56" value="&lt;b&gt;Partition 3&lt;/b&gt;" style="text;html=1;strokeColor=none;fillColor=none;align=center;verticalAlign=middle;whiteSpace=wrap;rounded=0;sketch=1;fontColor=#000000;" vertex="1" parent="1">
                    <mxGeometry x="200.22000000000003" y="38" width="91.75" height="30" as="geometry"/>
                </mxCell>
                <mxCell id="59" style="edgeStyle=none;html=1;exitX=0.25;exitY=0.1;exitDx=0;exitDy=0;exitPerimeter=0;entryX=1;entryY=0.5;entryDx=0;entryDy=0;fontSize=17;strokeColor=#000000;" edge="1" parent="1" source="58" target="44">
                    <mxGeometry relative="1" as="geometry"/>
                </mxCell>
                <mxCell id="60" style="edgeStyle=none;html=1;exitX=0.5;exitY=0;exitDx=0;exitDy=0;exitPerimeter=0;entryX=0.5;entryY=1;entryDx=0;entryDy=0;fontSize=17;strokeColor=#000000;" edge="1" parent="1" source="58" target="47">
                    <mxGeometry relative="1" as="geometry"/>
                </mxCell>
                <mxCell id="58" value="" style="shape=umlActor;verticalLabelPosition=bottom;verticalAlign=top;html=1;outlineConnect=0;fontSize=17;fillColor=#000000;strokeColor=#000000;" vertex="1" parent="1">
                    <mxGeometry x="58.44" y="280" width="30" height="60" as="geometry"/>
                </mxCell>
                <mxCell id="62" style="edgeStyle=none;html=1;exitX=0.75;exitY=0.1;exitDx=0;exitDy=0;exitPerimeter=0;entryX=1;entryY=0.25;entryDx=0;entryDy=0;fontSize=17;strokeColor=#000000;" edge="1" parent="1" source="61" target="52">
                    <mxGeometry relative="1" as="geometry"/>
                </mxCell>
                <mxCell id="63" style="edgeStyle=none;html=1;exitX=0.25;exitY=0.1;exitDx=0;exitDy=0;exitPerimeter=0;entryX=1;entryY=0.25;entryDx=0;entryDy=0;fontSize=17;strokeColor=#000000;" edge="1" parent="1" source="61" target="48">
                    <mxGeometry relative="1" as="geometry"/>
                </mxCell>
                <mxCell id="61" value="" style="shape=umlActor;verticalLabelPosition=bottom;verticalAlign=top;html=1;outlineConnect=0;fontSize=17;fillColor=#000000;strokeColor=#000000;" vertex="1" parent="1">
                    <mxGeometry x="206.66" y="280" width="30" height="60" as="geometry"/>
                </mxCell>
                <mxCell id="64" value="&lt;b&gt;Producer 1&lt;/b&gt;" style="text;html=1;strokeColor=none;fillColor=none;align=center;verticalAlign=middle;whiteSpace=wrap;rounded=0;sketch=1;fontColor=#000000;" vertex="1" parent="1">
                    <mxGeometry x="30.09" y="348" width="91.75" height="30" as="geometry"/>
                </mxCell>
                <mxCell id="65" value="&lt;b&gt;Producer 2&lt;/b&gt;" style="text;html=1;strokeColor=none;fillColor=none;align=center;verticalAlign=middle;whiteSpace=wrap;rounded=0;sketch=1;fontColor=#000000;" vertex="1" parent="1">
                    <mxGeometry x="180.44" y="348" width="91.75" height="30" as="geometry"/>
                </mxCell>
            </root>
        </mxGraphModel>
    </diagram>
</mxfile>